<svg width="320" height="48" viewBox="0 0 320 48" fill="none" xmlns="http://www.w3.org/2000/svg">
<rect width="320" height="48" rx="24" fill="url(#paint0_linear_7181_334)"/>
<path d="M81.1615 29.7969C81.0869 29.7969 81.0495 29.7595 81.0495 29.6849V19.1569C81.0495 19.0715 81.0869 19.0289 81.1615 19.0289H82.0735C82.1269 19.0289 82.1642 19.0395 82.1855 19.0609C82.2069 19.0822 82.2175 19.1195 82.2175 19.1729V28.7249C82.2175 28.7675 82.2229 28.8049 82.2335 28.8369C82.2442 28.8582 82.2762 28.8689 82.3295 28.8689H86.1855C86.2602 28.8689 86.3029 28.8795 86.3135 28.9009C86.3349 28.9115 86.3455 28.9489 86.3455 29.0129V29.6369C86.3455 29.7115 86.3349 29.7595 86.3135 29.7809C86.3029 29.7915 86.2602 29.7969 86.1855 29.7969H81.1615ZM88.0548 26.0049C88.0548 25.5035 88.1028 25.0235 88.1988 24.5649C88.3054 24.1062 88.4761 23.6955 88.7108 23.3329C88.9454 22.9595 89.2654 22.6715 89.6708 22.4689C90.0868 22.2555 90.6148 22.1489 91.2548 22.1489C91.9054 22.1489 92.4281 22.2449 92.8228 22.4369C93.2174 22.6289 93.5108 22.8849 93.7028 23.2049C93.9054 23.5249 94.0388 23.8769 94.1028 24.2609C94.1774 24.6449 94.2148 25.0289 94.2148 25.4129C94.2148 25.8075 94.1721 26.0529 94.0868 26.1489C94.0121 26.2449 93.8948 26.2929 93.7348 26.2929H89.3668C89.3348 26.2929 89.2974 26.3035 89.2548 26.3249C89.2228 26.3462 89.2068 26.4049 89.2068 26.5009C89.2068 26.9915 89.2868 27.4289 89.4468 27.8129C89.6068 28.1862 89.8521 28.4795 90.1828 28.6929C90.5241 28.9062 90.9508 29.0129 91.4628 29.0129C91.8148 29.0129 92.1828 28.9702 92.5668 28.8849C92.9508 28.7889 93.2708 28.6769 93.5268 28.5489C93.6121 28.4955 93.6814 28.4635 93.7348 28.4529C93.7881 28.4422 93.8361 28.4849 93.8788 28.5809L94.0868 28.9809C94.1188 29.0449 94.1241 29.0929 94.1028 29.1249C94.0921 29.1462 94.0548 29.1782 93.9908 29.2209C93.6494 29.4449 93.2334 29.6155 92.7428 29.7329C92.2628 29.8395 91.7721 29.8929 91.2708 29.8929C90.6094 29.8929 90.0708 29.7969 89.6548 29.6049C89.2388 29.4022 88.9134 29.1249 88.6788 28.7729C88.4441 28.4102 88.2788 27.9942 88.1828 27.5249C88.0974 27.0555 88.0548 26.5489 88.0548 26.0049ZM93.0468 25.2209C93.0468 24.8369 92.9988 24.4849 92.9028 24.1649C92.8068 23.8342 92.6254 23.5675 92.3588 23.3649C92.1028 23.1622 91.7241 23.0609 91.2228 23.0609C90.8601 23.0609 90.5508 23.1302 90.2948 23.2689C90.0388 23.4075 89.8361 23.5889 89.6868 23.8129C89.5374 24.0262 89.4254 24.2662 89.3508 24.5329C89.2761 24.7889 89.2281 25.0342 89.2068 25.2689C89.2068 25.3755 89.2121 25.4502 89.2228 25.4929C89.2441 25.5249 89.2974 25.5409 89.3828 25.5409H92.7748C92.8814 25.5409 92.9561 25.5249 92.9988 25.4929C93.0414 25.4609 93.0574 25.3702 93.0468 25.2209ZM99.3502 29.9249C98.8275 29.9249 98.3422 29.8662 97.8942 29.7489C97.4568 29.6209 97.1048 29.3915 96.8382 29.0609C96.5715 28.7195 96.4382 28.2289 96.4382 27.5889C96.4382 27.0449 96.5288 26.6022 96.7102 26.2609C96.8915 25.9089 97.1315 25.6422 97.4302 25.4609C97.7288 25.2689 98.0488 25.1355 98.3902 25.0609C98.7315 24.9862 99.0568 24.9489 99.3662 24.9489C99.6862 24.9489 100.001 24.9649 100.31 24.9969C100.619 25.0289 100.87 25.0662 101.062 25.1089C101.211 25.1409 101.286 25.0342 101.286 24.7889C101.286 24.1489 101.126 23.7009 100.806 23.4449C100.497 23.1782 100.006 23.0449 99.3342 23.0449C98.9182 23.0449 98.5288 23.1035 98.1662 23.2209C97.8035 23.3382 97.5048 23.4715 97.2702 23.6209C97.2062 23.6635 97.1582 23.6795 97.1262 23.6689C97.0942 23.6582 97.0782 23.6262 97.0782 23.5729L96.9822 22.9649C96.9715 22.9009 96.9715 22.8582 96.9822 22.8369C97.0035 22.8049 97.0355 22.7729 97.0782 22.7409C97.3342 22.5595 97.6542 22.4209 98.0382 22.3249C98.4328 22.2182 98.8702 22.1649 99.3502 22.1649C100.033 22.1649 100.577 22.2449 100.982 22.4049C101.387 22.5649 101.691 22.7782 101.894 23.0449C102.097 23.3115 102.23 23.6209 102.294 23.9729C102.369 24.3142 102.406 24.6769 102.406 25.0609C102.417 25.5835 102.417 26.0689 102.406 26.5169C102.406 26.9649 102.395 27.4075 102.374 27.8449C102.353 28.2715 102.321 28.7142 102.278 29.1729C102.267 29.2475 102.235 29.3169 102.182 29.3809C102.139 29.4342 102.043 29.4929 101.894 29.5569C101.734 29.6102 101.547 29.6635 101.334 29.7169C101.121 29.7595 100.897 29.7969 100.662 29.8289C100.427 29.8609 100.198 29.8822 99.9742 29.8929C99.7502 29.9142 99.5422 29.9249 99.3502 29.9249ZM99.4302 29.1409C99.5262 29.1409 99.6595 29.1355 99.8302 29.1249C100.011 29.1142 100.198 29.0875 100.39 29.0449C100.582 29.0022 100.747 28.9489 100.886 28.8849C101.025 28.8102 101.105 28.7195 101.126 28.6129C101.169 28.2929 101.201 27.9195 101.222 27.4929C101.243 27.0662 101.249 26.6662 101.238 26.2929C101.238 26.0795 101.163 25.9515 101.014 25.9089C100.875 25.8662 100.651 25.8289 100.342 25.7969C100.033 25.7542 99.6968 25.7329 99.3342 25.7329C99.1742 25.7329 98.9875 25.7595 98.7742 25.8129C98.5715 25.8662 98.3795 25.9569 98.1982 26.0849C98.0168 26.2129 97.8622 26.3995 97.7342 26.6449C97.6168 26.8902 97.5582 27.2049 97.5582 27.5889C97.5582 27.9515 97.6382 28.2502 97.7982 28.4849C97.9582 28.7089 98.1768 28.8742 98.4542 28.9809C98.7422 29.0875 99.0675 29.1409 99.4302 29.1409ZM107.581 22.1649C108.232 22.1649 108.781 22.2502 109.229 22.4209C109.283 22.4529 109.32 22.4795 109.341 22.5009C109.373 22.5222 109.384 22.5595 109.373 22.6129L109.213 23.2209C109.203 23.2742 109.181 23.3062 109.149 23.3169C109.128 23.3275 109.091 23.3222 109.037 23.3009C108.845 23.2369 108.637 23.1942 108.413 23.1729C108.189 23.1409 107.981 23.1249 107.789 23.1249C107.619 23.1249 107.443 23.1409 107.261 23.1729C107.08 23.2049 106.915 23.2422 106.765 23.2849C106.627 23.3169 106.52 23.3489 106.445 23.3809C106.403 23.4129 106.349 23.4502 106.285 23.4929C106.221 23.5355 106.189 23.6315 106.189 23.7809V29.6209C106.189 29.6955 106.179 29.7435 106.157 29.7649C106.136 29.7862 106.099 29.7969 106.045 29.7969H105.181C105.149 29.7969 105.117 29.7862 105.085 29.7649C105.064 29.7435 105.053 29.7062 105.053 29.6529V23.1089C105.053 22.9489 105.075 22.8422 105.117 22.7889C105.16 22.7355 105.224 22.6875 105.309 22.6449C105.629 22.4955 106.003 22.3782 106.429 22.2929C106.856 22.2075 107.24 22.1649 107.581 22.1649ZM111.504 29.7969C111.418 29.7969 111.376 29.7542 111.376 29.6689C111.376 28.5382 111.376 27.4075 111.376 26.2769C111.376 25.1462 111.376 24.0102 111.376 22.8689C111.376 22.8049 111.397 22.7515 111.44 22.7089C111.482 22.6555 111.578 22.6022 111.728 22.5489C111.866 22.5062 112.069 22.4582 112.336 22.4049C112.613 22.3409 112.906 22.2822 113.216 22.2289C113.536 22.1755 113.829 22.1489 114.096 22.1489C114.917 22.1489 115.546 22.3089 115.984 22.6289C116.432 22.9489 116.741 23.3862 116.912 23.9409C117.082 24.4849 117.168 25.0875 117.168 25.7489C117.168 26.2395 117.157 26.7355 117.136 27.2369C117.114 27.7275 117.088 28.1809 117.056 28.5969C117.034 29.0129 117.013 29.3435 116.992 29.5889C116.981 29.6849 116.96 29.7435 116.928 29.7649C116.906 29.7862 116.848 29.7969 116.752 29.7969H116.064C115.978 29.7969 115.92 29.7862 115.888 29.7649C115.856 29.7329 115.845 29.6795 115.856 29.6049C115.856 29.5409 115.861 29.3702 115.872 29.0929C115.893 28.8155 115.914 28.4849 115.936 28.1009C115.957 27.7062 115.973 27.3009 115.984 26.8849C116.005 26.4582 116.016 26.0689 116.016 25.7169C116.016 25.1409 115.946 24.6609 115.808 24.2769C115.669 23.8929 115.456 23.6049 115.168 23.4129C114.89 23.2209 114.528 23.1249 114.08 23.1249C113.845 23.1249 113.616 23.1462 113.392 23.1889C113.168 23.2315 112.965 23.2849 112.784 23.3489C112.72 23.3595 112.656 23.3969 112.592 23.4609C112.538 23.5142 112.512 23.6102 112.512 23.7489C112.512 24.3462 112.512 24.9755 112.512 25.6369C112.512 26.2982 112.512 26.9702 112.512 27.6529C112.512 28.3249 112.512 28.9969 112.512 29.6689C112.512 29.7542 112.474 29.7969 112.4 29.7969H111.504ZM127.4 29.9249C126.877 29.9249 126.392 29.8662 125.944 29.7489C125.507 29.6209 125.155 29.3915 124.888 29.0609C124.621 28.7195 124.488 28.2289 124.488 27.5889C124.488 27.0449 124.579 26.6022 124.76 26.2609C124.941 25.9089 125.181 25.6422 125.48 25.4609C125.779 25.2689 126.099 25.1355 126.44 25.0609C126.781 24.9862 127.107 24.9489 127.416 24.9489C127.736 24.9489 128.051 24.9649 128.36 24.9969C128.669 25.0289 128.92 25.0662 129.112 25.1089C129.261 25.1409 129.336 25.0342 129.336 24.7889C129.336 24.1489 129.176 23.7009 128.856 23.4449C128.547 23.1782 128.056 23.0449 127.384 23.0449C126.968 23.0449 126.579 23.1035 126.216 23.2209C125.853 23.3382 125.555 23.4715 125.32 23.6209C125.256 23.6635 125.208 23.6795 125.176 23.6689C125.144 23.6582 125.128 23.6262 125.128 23.5729L125.032 22.9649C125.021 22.9009 125.021 22.8582 125.032 22.8369C125.053 22.8049 125.085 22.7729 125.128 22.7409C125.384 22.5595 125.704 22.4209 126.088 22.3249C126.483 22.2182 126.92 22.1649 127.4 22.1649C128.083 22.1649 128.627 22.2449 129.032 22.4049C129.437 22.5649 129.741 22.7782 129.944 23.0449C130.147 23.3115 130.28 23.6209 130.344 23.9729C130.419 24.3142 130.456 24.6769 130.456 25.0609C130.467 25.5835 130.467 26.0689 130.456 26.5169C130.456 26.9649 130.445 27.4075 130.424 27.8449C130.403 28.2715 130.371 28.7142 130.328 29.1729C130.317 29.2475 130.285 29.3169 130.232 29.3809C130.189 29.4342 130.093 29.4929 129.944 29.5569C129.784 29.6102 129.597 29.6635 129.384 29.7169C129.171 29.7595 128.947 29.7969 128.712 29.8289C128.477 29.8609 128.248 29.8822 128.024 29.8929C127.8 29.9142 127.592 29.9249 127.4 29.9249ZM127.48 29.1409C127.576 29.1409 127.709 29.1355 127.88 29.1249C128.061 29.1142 128.248 29.0875 128.44 29.0449C128.632 29.0022 128.797 28.9489 128.936 28.8849C129.075 28.8102 129.155 28.7195 129.176 28.6129C129.219 28.2929 129.251 27.9195 129.272 27.4929C129.293 27.0662 129.299 26.6662 129.288 26.2929C129.288 26.0795 129.213 25.9515 129.064 25.9089C128.925 25.8662 128.701 25.8289 128.392 25.7969C128.083 25.7542 127.747 25.7329 127.384 25.7329C127.224 25.7329 127.037 25.7595 126.824 25.8129C126.621 25.8662 126.429 25.9569 126.248 26.0849C126.067 26.2129 125.912 26.3995 125.784 26.6449C125.667 26.8902 125.608 27.2049 125.608 27.5889C125.608 27.9515 125.688 28.2502 125.848 28.4849C126.008 28.7089 126.227 28.8742 126.504 28.9809C126.792 29.0875 127.117 29.1409 127.48 29.1409ZM135.951 29.8929C135.418 29.8929 134.938 29.8449 134.511 29.7489C134.084 29.6529 133.823 29.5889 133.727 29.5569C133.578 29.5035 133.466 29.4555 133.391 29.4129C133.316 29.3595 133.268 29.2902 133.247 29.2049C133.226 29.1195 133.199 28.9915 133.167 28.8209C133.135 28.6289 133.103 28.3355 133.071 27.9409C133.05 27.5462 133.034 27.1142 133.023 26.6449C133.012 26.1755 133.002 25.7382 132.991 25.3329C132.98 24.1809 132.996 23.0235 133.039 21.8609C133.082 20.6982 133.146 19.6102 133.231 18.5969C133.242 18.5542 133.258 18.5222 133.279 18.5009C133.311 18.4795 133.354 18.4689 133.407 18.4689H134.223C134.319 18.4689 134.367 18.4902 134.367 18.5329C134.378 18.5649 134.378 18.6182 134.367 18.6929C134.346 18.8635 134.324 19.0822 134.303 19.3489C134.282 19.6049 134.26 19.8822 134.239 20.1809C134.228 20.4795 134.212 20.7675 134.191 21.0449C134.18 21.3222 134.17 21.5675 134.159 21.7809C134.159 21.9835 134.159 22.1275 134.159 22.2129C134.159 22.3195 134.18 22.3889 134.223 22.4209C134.276 22.4529 134.34 22.4529 134.415 22.4209C134.575 22.3782 134.81 22.3302 135.119 22.2769C135.439 22.2129 135.748 22.1809 136.047 22.1809C136.399 22.1809 136.756 22.2395 137.119 22.3569C137.482 22.4742 137.807 22.6822 138.095 22.9809C138.394 23.2689 138.634 23.6742 138.815 24.1969C139.007 24.7089 139.103 25.3702 139.103 26.1809C139.103 27.4715 138.82 28.4155 138.255 29.0129C137.7 29.5995 136.932 29.8929 135.951 29.8929ZM135.935 28.9969C136.319 28.9969 136.66 28.9062 136.959 28.7249C137.268 28.5435 137.508 28.2502 137.679 27.8449C137.86 27.4289 137.951 26.8635 137.951 26.1489C137.951 25.5089 137.887 24.9969 137.759 24.6129C137.642 24.2182 137.476 23.9142 137.263 23.7009C137.06 23.4875 136.842 23.3435 136.607 23.2689C136.372 23.1942 136.148 23.1569 135.935 23.1569C135.796 23.1569 135.615 23.1782 135.391 23.2209C135.178 23.2529 134.98 23.2902 134.799 23.3329C134.618 23.3755 134.484 23.4075 134.399 23.4289C134.346 23.4395 134.298 23.4662 134.255 23.5089C134.212 23.5409 134.186 23.5995 134.175 23.6849C134.164 23.8769 134.159 24.1489 134.159 24.5009C134.159 24.8422 134.159 25.2422 134.159 25.7009C134.17 26.1489 134.18 26.6129 134.191 27.0929C134.212 27.5622 134.239 28.0049 134.271 28.4209C134.282 28.5169 134.303 28.5915 134.335 28.6449C134.367 28.6875 134.41 28.7195 134.463 28.7409C134.623 28.7942 134.831 28.8529 135.087 28.9169C135.343 28.9702 135.626 28.9969 135.935 28.9969ZM144.649 29.8929C143.785 29.8929 143.113 29.7275 142.633 29.3969C142.153 29.0662 141.817 28.6075 141.625 28.0209C141.443 27.4342 141.353 26.7622 141.353 26.0049C141.353 25.2582 141.454 24.5969 141.657 24.0209C141.87 23.4342 142.217 22.9755 142.697 22.6449C143.177 22.3142 143.827 22.1489 144.649 22.1489C145.481 22.1489 146.137 22.3142 146.617 22.6449C147.097 22.9755 147.438 23.4342 147.641 24.0209C147.854 24.5969 147.961 25.2582 147.961 26.0049C147.961 26.7515 147.865 27.4182 147.673 28.0049C147.491 28.5915 147.161 29.0555 146.681 29.3969C146.211 29.7275 145.534 29.8929 144.649 29.8929ZM144.649 28.9809C145.449 28.9809 146.003 28.7249 146.313 28.2129C146.633 27.6902 146.793 26.9595 146.793 26.0209C146.793 25.0822 146.622 24.3622 146.281 23.8609C145.939 23.3595 145.395 23.1089 144.649 23.1089C143.913 23.1089 143.369 23.3595 143.017 23.8609C142.675 24.3622 142.505 25.0822 142.505 26.0209C142.505 26.9702 142.665 27.7009 142.985 28.2129C143.305 28.7249 143.859 28.9809 144.649 28.9809ZM153.467 29.8609C152.657 29.8609 152.027 29.7009 151.579 29.3809C151.142 29.0609 150.833 28.6289 150.651 28.0849C150.481 27.5409 150.395 26.9382 150.395 26.2769C150.395 25.7862 150.406 25.2955 150.427 24.8049C150.449 24.3142 150.47 23.8609 150.491 23.4449C150.523 23.0289 150.545 22.6982 150.555 22.4529C150.577 22.3569 150.603 22.2982 150.635 22.2769C150.667 22.2555 150.726 22.2449 150.811 22.2449H151.499C151.585 22.2449 151.643 22.2502 151.675 22.2609C151.707 22.2715 151.718 22.3302 151.707 22.4369C151.707 22.5009 151.697 22.6662 151.675 22.9329C151.665 23.1995 151.649 23.5249 151.627 23.9089C151.606 24.2929 151.59 24.6982 151.579 25.1249C151.569 25.5515 151.563 25.9569 151.563 26.3409C151.563 27.1409 151.707 27.7702 151.995 28.2289C152.294 28.6875 152.785 28.9169 153.467 28.9169C153.553 28.9169 153.681 28.9115 153.851 28.9009C154.033 28.8795 154.214 28.8475 154.395 28.8049C154.587 28.7622 154.747 28.7089 154.875 28.6449C155.003 28.5702 155.067 28.4795 155.067 28.3729V22.3889C155.067 22.3569 155.073 22.3249 155.083 22.2929C155.094 22.2609 155.115 22.2449 155.147 22.2449H156.059C156.091 22.2449 156.118 22.2555 156.139 22.2769C156.171 22.2875 156.187 22.3195 156.187 22.3729V29.0129C156.187 29.1409 156.155 29.2369 156.091 29.3009C156.027 29.3542 155.894 29.4182 155.691 29.4929C155.595 29.5249 155.419 29.5729 155.163 29.6369C154.918 29.6902 154.641 29.7435 154.331 29.7969C154.022 29.8395 153.734 29.8609 153.467 29.8609ZM161.68 29.7969C161.019 29.7969 160.528 29.6582 160.208 29.3809C159.888 29.0929 159.68 28.6929 159.584 28.1809C159.488 27.7329 159.44 27.2635 159.44 26.7729C159.44 26.2715 159.44 25.7595 159.44 25.2369C159.44 24.8742 159.44 24.5275 159.44 24.1969C159.451 23.8662 159.467 23.5302 159.488 23.1889C159.488 23.0929 159.446 23.0449 159.36 23.0449H158.544C158.502 23.0449 158.47 23.0342 158.448 23.0129C158.427 22.9915 158.416 22.9595 158.416 22.9169V22.3729C158.416 22.3302 158.427 22.2982 158.448 22.2769C158.47 22.2555 158.507 22.2449 158.56 22.2449H159.376C159.43 22.2449 159.467 22.2342 159.488 22.2129C159.51 22.1809 159.52 22.1275 159.52 22.0529L159.6 20.6929C159.6 20.6182 159.632 20.5809 159.696 20.5809H160.592C160.624 20.5809 160.651 20.5915 160.672 20.6129C160.704 20.6342 160.72 20.6609 160.72 20.6929L160.656 22.0529C160.646 22.1275 160.646 22.1809 160.656 22.2129C160.678 22.2342 160.715 22.2449 160.768 22.2449H162.64C162.694 22.2449 162.726 22.2555 162.736 22.2769C162.758 22.2875 162.768 22.3249 162.768 22.3889V22.9009C162.768 22.9435 162.758 22.9809 162.736 23.0129C162.715 23.0342 162.678 23.0449 162.624 23.0449H160.768C160.726 23.0449 160.688 23.0609 160.656 23.0929C160.624 23.1142 160.608 23.1569 160.608 23.2209C160.598 23.5622 160.587 23.9089 160.576 24.2609C160.566 24.6129 160.56 24.9702 160.56 25.3329C160.56 25.7702 160.56 26.2182 160.56 26.6769C160.571 27.1249 160.624 27.5622 160.72 27.9889C160.784 28.2875 160.902 28.5115 161.072 28.6609C161.254 28.8102 161.531 28.8849 161.904 28.8849C162.054 28.8849 162.203 28.8689 162.352 28.8369C162.502 28.7942 162.651 28.7515 162.8 28.7089C162.875 28.6662 162.923 28.6502 162.944 28.6609C162.966 28.6715 162.987 28.7089 163.008 28.7729L163.184 29.3009C163.206 29.3649 163.195 29.4129 163.152 29.4449C163.12 29.4769 163.051 29.5195 162.944 29.5729C162.827 29.6155 162.683 29.6582 162.512 29.7009C162.352 29.7329 162.198 29.7595 162.048 29.7809C161.899 29.7915 161.776 29.7969 161.68 29.7969ZM175.606 29.4609C175.606 29.5995 175.52 29.6955 175.35 29.7489C175.2 29.8022 175.019 29.8395 174.806 29.8609C174.603 29.8929 174.406 29.9142 174.214 29.9249C174.022 29.9355 173.872 29.9409 173.766 29.9409C172.571 29.9409 171.606 29.4822 170.87 28.5649C170.144 27.6369 169.782 26.2609 169.782 24.4369C169.782 22.6022 170.134 21.2262 170.838 20.3089C171.542 19.3809 172.518 18.9169 173.766 18.9169C173.872 18.9169 174.022 18.9275 174.214 18.9489C174.406 18.9595 174.603 18.9809 174.806 19.0129C175.019 19.0342 175.2 19.0662 175.35 19.1089C175.435 19.1302 175.499 19.1622 175.542 19.2049C175.584 19.2475 175.606 19.2955 175.606 19.3489V20.1169C175.606 20.2875 175.526 20.3249 175.366 20.2289C175.216 20.1329 175.008 20.0475 174.742 19.9729C174.486 19.8982 174.198 19.8609 173.878 19.8609C173.312 19.8609 172.843 19.9835 172.47 20.2289C172.096 20.4635 171.798 20.7889 171.574 21.2049C171.36 21.6102 171.206 22.0742 171.11 22.5969C171.024 23.1089 170.982 23.6475 170.982 24.2129C170.982 24.5969 171.003 25.0075 171.046 25.4449C171.088 25.8715 171.163 26.2982 171.27 26.7249C171.387 27.1409 171.552 27.5249 171.766 27.8769C171.99 28.2182 172.272 28.4955 172.614 28.7089C172.955 28.9115 173.376 29.0129 173.878 29.0129C174.219 29.0129 174.518 28.9755 174.774 28.9009C175.03 28.8262 175.222 28.7515 175.35 28.6769C175.446 28.6129 175.51 28.5915 175.542 28.6129C175.584 28.6235 175.606 28.6769 175.606 28.7729V29.4609ZM180.969 29.8929C180.105 29.8929 179.433 29.7275 178.953 29.3969C178.473 29.0662 178.137 28.6075 177.945 28.0209C177.763 27.4342 177.673 26.7622 177.673 26.0049C177.673 25.2582 177.774 24.5969 177.977 24.0209C178.19 23.4342 178.537 22.9755 179.017 22.6449C179.497 22.3142 180.147 22.1489 180.969 22.1489C181.801 22.1489 182.457 22.3142 182.937 22.6449C183.417 22.9755 183.758 23.4342 183.961 24.0209C184.174 24.5969 184.281 25.2582 184.281 26.0049C184.281 26.7515 184.185 27.4182 183.993 28.0049C183.811 28.5915 183.481 29.0555 183.001 29.3969C182.531 29.7275 181.854 29.8929 180.969 29.8929ZM180.969 28.9809C181.769 28.9809 182.323 28.7249 182.633 28.2129C182.953 27.6902 183.113 26.9595 183.113 26.0209C183.113 25.0822 182.942 24.3622 182.601 23.8609C182.259 23.3595 181.715 23.1089 180.969 23.1089C180.233 23.1089 179.689 23.3595 179.337 23.8609C178.995 24.3622 178.825 25.0822 178.825 26.0209C178.825 26.9702 178.985 27.7009 179.305 28.2129C179.625 28.7249 180.179 28.9809 180.969 28.9809ZM186.859 29.6849V18.5809C186.859 18.5062 186.897 18.4689 186.971 18.4689H187.867C187.953 18.4689 187.995 18.5062 187.995 18.5809V29.6849C187.995 29.7595 187.953 29.7969 187.867 29.7969H186.971C186.897 29.7969 186.859 29.7595 186.859 29.6849ZM193.469 29.7969C192.808 29.7969 192.317 29.6582 191.997 29.3809C191.677 29.0929 191.469 28.6929 191.373 28.1809C191.277 27.7329 191.229 27.2635 191.229 26.7729C191.229 26.2715 191.229 25.7595 191.229 25.2369C191.229 24.8742 191.229 24.5275 191.229 24.1969C191.24 23.8662 191.256 23.5302 191.277 23.1889C191.277 23.0929 191.234 23.0449 191.149 23.0449H190.333C190.29 23.0449 190.258 23.0342 190.237 23.0129C190.216 22.9915 190.205 22.9595 190.205 22.9169V22.3729C190.205 22.3302 190.216 22.2982 190.237 22.2769C190.258 22.2555 190.296 22.2449 190.349 22.2449H191.165C191.218 22.2449 191.256 22.2342 191.277 22.2129C191.298 22.1809 191.309 22.1275 191.309 22.0529L191.389 20.6929C191.389 20.6182 191.421 20.5809 191.485 20.5809H192.381C192.413 20.5809 192.44 20.5915 192.461 20.6129C192.493 20.6342 192.509 20.6609 192.509 20.6929L192.445 22.0529C192.434 22.1275 192.434 22.1809 192.445 22.2129C192.466 22.2342 192.504 22.2449 192.557 22.2449H194.429C194.482 22.2449 194.514 22.2555 194.525 22.2769C194.546 22.2875 194.557 22.3249 194.557 22.3889V22.9009C194.557 22.9435 194.546 22.9809 194.525 23.0129C194.504 23.0342 194.466 23.0449 194.413 23.0449H192.557C192.514 23.0449 192.477 23.0609 192.445 23.0929C192.413 23.1142 192.397 23.1569 192.397 23.2209C192.386 23.5622 192.376 23.9089 192.365 24.2609C192.354 24.6129 192.349 24.9702 192.349 25.3329C192.349 25.7702 192.349 26.2182 192.349 26.6769C192.36 27.1249 192.413 27.5622 192.509 27.9889C192.573 28.2875 192.69 28.5115 192.861 28.6609C193.042 28.8102 193.32 28.8849 193.693 28.8849C193.842 28.8849 193.992 28.8689 194.141 28.8369C194.29 28.7942 194.44 28.7515 194.589 28.7089C194.664 28.6662 194.712 28.6502 194.733 28.6609C194.754 28.6715 194.776 28.7089 194.797 28.7729L194.973 29.3009C194.994 29.3649 194.984 29.4129 194.941 29.4449C194.909 29.4769 194.84 29.5195 194.733 29.5729C194.616 29.6155 194.472 29.6582 194.301 29.7009C194.141 29.7329 193.986 29.7595 193.837 29.7809C193.688 29.7915 193.565 29.7969 193.469 29.7969ZM197.663 29.6689C197.631 29.2955 197.599 28.8529 197.567 28.3409C197.546 27.8289 197.525 27.2849 197.503 26.7089C197.493 26.1222 197.482 25.5355 197.471 24.9489C197.461 24.3622 197.455 23.8075 197.455 23.2849C197.455 23.1889 197.413 23.1409 197.327 23.1409H196.383C196.341 23.1409 196.309 23.1302 196.287 23.1089C196.277 23.0875 196.271 23.0555 196.271 23.0129V22.3729C196.271 22.3302 196.277 22.2982 196.287 22.2769C196.309 22.2555 196.346 22.2449 196.399 22.2449H197.327C197.381 22.2449 197.413 22.2395 197.423 22.2289C197.445 22.2075 197.455 22.1649 197.455 22.1009C197.445 21.5782 197.461 21.0982 197.503 20.6609C197.557 20.2235 197.706 19.8235 197.951 19.4609C198.197 19.1089 198.538 18.8475 198.975 18.6769C199.413 18.4955 199.946 18.4049 200.575 18.4049C200.885 18.4049 201.167 18.4529 201.423 18.5489C201.69 18.6342 201.871 18.7035 201.967 18.7569C202.042 18.7995 202.085 18.8369 202.095 18.8689C202.117 18.8902 202.122 18.9222 202.111 18.9649L201.951 19.4769C201.941 19.5302 201.925 19.5622 201.903 19.5729C201.882 19.5835 201.85 19.5782 201.807 19.5569C201.679 19.4822 201.509 19.4182 201.295 19.3649C201.093 19.3115 200.847 19.2902 200.559 19.3009C200.079 19.3009 199.685 19.3862 199.375 19.5569C199.077 19.7169 198.879 20.0102 198.783 20.4369C198.698 20.7035 198.645 20.9755 198.623 21.2529C198.602 21.5302 198.591 21.8129 198.591 22.1009C198.591 22.1542 198.602 22.1915 198.623 22.2129C198.645 22.2342 198.677 22.2449 198.719 22.2449H201.119C201.162 22.2449 201.189 22.2555 201.199 22.2769C201.221 22.2875 201.231 22.3249 201.231 22.3889V23.0129C201.231 23.0449 201.221 23.0769 201.199 23.1089C201.178 23.1302 201.146 23.1409 201.103 23.1409H198.735C198.693 23.1409 198.655 23.1515 198.623 23.1729C198.602 23.1942 198.591 23.2315 198.591 23.2849C198.591 23.7862 198.597 24.3409 198.607 24.9489C198.618 25.5569 198.634 26.1649 198.655 26.7729C198.677 27.3809 198.698 27.9409 198.719 28.4529C198.741 28.9542 198.762 29.3649 198.783 29.6849C198.783 29.7275 198.778 29.7595 198.767 29.7809C198.757 29.8022 198.73 29.8129 198.687 29.8129H197.775C197.754 29.8129 197.733 29.8022 197.711 29.7809C197.69 29.7595 197.674 29.7222 197.663 29.6689ZM205.94 29.8929C205.076 29.8929 204.404 29.7275 203.924 29.3969C203.444 29.0662 203.108 28.6075 202.916 28.0209C202.735 27.4342 202.644 26.7622 202.644 26.0049C202.644 25.2582 202.746 24.5969 202.948 24.0209C203.162 23.4342 203.508 22.9755 203.988 22.6449C204.468 22.3142 205.119 22.1489 205.94 22.1489C206.772 22.1489 207.428 22.3142 207.908 22.6449C208.388 22.9755 208.73 23.4342 208.932 24.0209C209.146 24.5969 209.252 25.2582 209.252 26.0049C209.252 26.7515 209.156 27.4182 208.964 28.0049C208.783 28.5915 208.452 29.0555 207.972 29.3969C207.503 29.7275 206.826 29.8929 205.94 29.8929ZM205.94 28.9809C206.74 28.9809 207.295 28.7249 207.604 28.2129C207.924 27.6902 208.084 26.9595 208.084 26.0209C208.084 25.0822 207.914 24.3622 207.572 23.8609C207.231 23.3595 206.687 23.1089 205.94 23.1089C205.204 23.1089 204.66 23.3595 204.308 23.8609C203.967 24.3622 203.796 25.0822 203.796 26.0209C203.796 26.9702 203.956 27.7009 204.276 28.2129C204.596 28.7249 205.151 28.9809 205.94 28.9809ZM211.095 29.7969C211.052 29.7969 211.02 29.7809 210.999 29.7489C210.988 29.7062 210.988 29.6635 210.999 29.6209C211.01 29.5782 211.015 29.5462 211.015 29.5249C211.026 29.4715 211.068 29.3329 211.143 29.1089C211.228 28.8742 211.346 28.5862 211.495 28.2449C211.655 27.9035 211.836 27.5409 212.039 27.1569C212.242 26.7622 212.466 26.3782 212.711 26.0049C212.743 25.9515 212.759 25.9035 212.759 25.8609C212.759 25.8075 212.738 25.7542 212.695 25.7009C212.45 25.3595 212.231 24.9969 212.039 24.6129C211.847 24.2182 211.682 23.8502 211.543 23.5089C211.415 23.1675 211.314 22.8902 211.239 22.6769C211.175 22.4529 211.143 22.3409 211.143 22.3409C211.132 22.2769 211.154 22.2449 211.207 22.2449H212.199C212.242 22.2449 212.274 22.2555 212.295 22.2769C212.327 22.2875 212.354 22.3302 212.375 22.4049C212.386 22.4475 212.428 22.5969 212.503 22.8529C212.588 23.0982 212.695 23.3809 212.823 23.7009C212.951 24.0209 213.095 24.3355 213.255 24.6449C213.426 24.9542 213.591 25.1942 213.751 25.3649C213.826 25.3649 213.89 25.3649 213.943 25.3649C214.007 25.3649 214.071 25.3649 214.135 25.3649C214.316 25.1942 214.487 24.9595 214.647 24.6609C214.807 24.3515 214.951 24.0369 215.079 23.7169C215.207 23.3969 215.308 23.1142 215.383 22.8689C215.458 22.6235 215.5 22.4742 215.511 22.4209C215.532 22.3462 215.554 22.2982 215.575 22.2769C215.607 22.2555 215.66 22.2449 215.735 22.2449H216.535C216.567 22.2449 216.594 22.2555 216.615 22.2769C216.647 22.2875 216.658 22.3249 216.647 22.3889C216.636 22.4315 216.599 22.5649 216.535 22.7889C216.471 23.0129 216.375 23.2849 216.247 23.6049C216.119 23.9249 215.959 24.2715 215.767 24.6449C215.586 25.0075 215.372 25.3595 215.127 25.7009C215.052 25.7755 215.058 25.8715 215.143 25.9889C215.41 26.3622 215.644 26.7462 215.847 27.1409C216.06 27.5355 216.236 27.9089 216.375 28.2609C216.514 28.6022 216.62 28.8902 216.695 29.1249C216.78 29.3489 216.828 29.4875 216.839 29.5409C216.85 29.6155 216.85 29.6795 216.839 29.7329C216.828 29.7755 216.791 29.7969 216.727 29.7969H215.911C215.847 29.7969 215.799 29.7862 215.767 29.7649C215.735 29.7435 215.708 29.6955 215.687 29.6209C215.655 29.5249 215.591 29.3435 215.495 29.0769C215.41 28.8102 215.298 28.5062 215.159 28.1649C215.02 27.8235 214.86 27.4929 214.679 27.1729C214.508 26.8529 214.327 26.5969 214.135 26.4049C214.071 26.4049 214.023 26.4049 213.991 26.4049C213.959 26.4049 213.927 26.4049 213.895 26.4049C213.863 26.4049 213.815 26.4049 213.751 26.4049C213.538 26.6715 213.34 26.9862 213.159 27.3489C212.978 27.7115 212.812 28.0689 212.663 28.4209C212.524 28.7729 212.412 29.0662 212.327 29.3009C212.252 29.5249 212.215 29.6369 212.215 29.6369C212.194 29.7115 212.167 29.7595 212.135 29.7809C212.114 29.7915 212.076 29.7969 212.023 29.7969H211.095ZM233.492 26.1969C233.652 25.8555 233.806 25.5569 233.956 25.3009C234.116 25.0449 234.27 24.8315 234.42 24.6609H225.092V23.9889H234.42C234.27 23.8075 234.116 23.5889 233.956 23.3329C233.806 23.0769 233.652 22.7835 233.492 22.4529H234.052C234.724 23.2315 235.428 23.8075 236.164 24.1809V24.4689C235.428 24.8315 234.724 25.4075 234.052 26.1969H233.492Z" fill="white"/>
<defs>
<linearGradient id="paint0_linear_7181_334" x1="183.27" y1="-0.200196" x2="185.27" y2="85.2998" gradientUnits="userSpaceOnUse">
<stop stop-color="#FD9A60"/>
<stop offset="1" stop-color="#F22929"/>
</linearGradient>
</defs>
</svg>
